Coordinates
version=1
nRows=16
nColumns=36
inDegrees=yes

Units are S.I. units (second, meters, Newtons, ...)
If the header above contains a line with 'inDegrees', this indicates whether rotational values are in degrees (yes) or radians (no).

endheader
time	pelvis_tilt	pelvis_list	pelvis_rotation	pelvis_tx	pelvis_ty	pelvis_tz	hip_flexion_r	hip_adduction_r	hip_rotation_r	knee_angle_r	knee_angle_r_beta	ankle_angle_r	subtalar_angle_r	mtp_angle_r	hip_flexion_l	hip_adduction_l	hip_rotation_l	knee_angle_l	knee_angle_l_beta	ankle_angle_l	subtalar_angle_l	mtp_angle_l	lumbar_extension	lumbar_bending	lumbar_rotation	arm_flex_r	arm_add_r	arm_rot_r	elbow_flex_r	pro_sup_r	arm_flex_l	arm_add_l	arm_rot_l	elbow_flex_l	pro_sup_l
      1.38000000	    -13.03896780	     -1.44709071	      0.85222817	     -0.27580070	      0.72504951	     -0.58932413	     70.12732509	     -3.65098627	      1.43478674	     90.04578298	      1.57159539	     25.48337252	     -8.61617006	     -7.46628277	     69.82888658	     -3.04580360	      7.68729930	     89.01589616	      1.55362047	     23.62700375	    -12.11164065	     -7.46628277	    -25.16169384	     -3.31504949	      0.06620670	      7.22956649	    -14.99553235	    -16.20977332	    126.76174897	    103.17405832	     35.67182018	    -31.10223753	      3.61067003	    129.03010218	    112.77524057
      1.39000000	    -13.52626846	     -1.65069306	      0.67539551	     -0.27496786	      0.71807343	     -0.58942320	     71.77691935	     -3.57675630	      1.27820866	     91.66881415	      1.59992263	     24.95731594	     -8.44054068	     -7.46656566	     71.30123421	     -3.43149979	      7.65756225	     90.51110515	      1.57971679	     23.75947240	    -12.06423302	     -7.46656566	    -26.00392037	     -3.28776174	      0.06353681	     11.01851719	    -15.71796580	    -12.90566111	    125.76361827	    103.26669924	     39.00092514	    -29.73235563	      5.58796149	    127.19463286	    112.75585958
      1.40000000	    -13.77444729	     -1.93974601	      0.33978338	     -0.27404427	      0.71238549	     -0.58929521	     72.86085397	     -3.24872183	      1.14351700	     92.86958722	      1.62088007	     24.61489471	     -8.33264706	     -7.46685673	     72.24462486	     -3.99142473	      7.72741780	     91.76060675	      1.60152471	     24.19864078	    -11.99597217	     -7.46685673	    -27.08408048	     -3.21642572	      0.24166673	     14.87043294	    -16.31156451	    -10.05723725	    124.96299066	    103.39986930	     42.22956719	    -28.59116032	      7.70553629	    125.73920792	    112.80530299
      1.41000000	    -13.95967552	     -2.33988483	      0.00510822	     -0.27300944	      0.70759126	     -0.58909859	     73.51791313	     -2.85088586	      0.87098330	     93.67824286	      1.63499378	     24.76813245	     -8.30629846	     -7.46790546	     72.90830270	     -4.56990287	      8.05279215	     92.77911345	      1.61930101	     25.45059103	    -11.06016710	     -7.46790546	    -28.17102477	     -3.03829174	      0.55423361	     18.54778474	    -16.65092724	     -7.81018903	    124.31695786	    103.76100072	     45.33382266	    -27.53310116	      9.96890324	    124.53748273	    112.99027000
      1.42000000	    -14.42546165	     -2.73183875	     -0.33652298	     -0.27183331	      0.70294036	     -0.58892143	     74.17782815	     -2.44431563	      0.59761419	     94.15974249	      1.64339753	     25.27865732	     -8.24067540	     -7.46824129	     73.76301725	     -5.07696089	      8.43218429	     93.60157509	      1.63365567	     26.02273979	    -11.05163890	     -7.46824129	    -28.78543540	     -2.80193878	      0.81027412	     21.82290372	    -16.72061496	     -5.68572162	    123.71602472	    103.92421243	     47.74926148	    -26.36266765	     11.47822459	    123.64633513	    113.06182649
      1.43000000	    -15.03953844	     -2.96633360	     -0.56901311	     -0.27040469	      0.69878056	     -0.58907381	     74.74379344	     -2.26380209	      0.39830355	     94.40544345	      1.64768582	     26.25668421	     -8.11008677	     -7.46855437	     74.64073081	     -5.33974655	      8.70205200	     94.25507793	      1.64506145	     26.67016700	    -10.90294040	     -7.46855437	    -29.13790317	     -2.69592588	      0.82243500	     24.59069606	    -16.33089251	     -4.17803184	    123.05093887	    104.02898034	     49.81118743	    -25.33523046	     12.75526082	    123.12322619	    113.13469243
      1.44000000	    -15.71424976	     -2.97682886	     -0.55101671	     -0.26874420	      0.69535917	     -0.59009270	     75.21145474	     -2.58417061	      0.27894006	     94.52913579	      1.64984466	     27.64423339	     -7.70528001	     -7.46889414	     75.42651138	     -5.13648909	      8.79714980	     94.70127530	      1.65284906	     27.36979055	    -10.73307942	     -7.46889414	    -29.36004163	     -2.65559213	      0.49083848	     26.90854508	    -15.68129797	     -3.21195194	    122.35378362	    104.06827379	     51.56429063	    -24.38485875	     13.88810822	    122.75813461	    113.22096096
      1.45000000	    -16.36328269	     -2.69804196	     -0.38161694	     -0.26688601	      0.69276562	     -0.59155968	     75.58785619	     -3.31388518	      0.41766662	     94.66309190	      1.65218263	     30.04972244	     -5.52900790	     -7.46991650	     76.03018780	     -4.67732216	      8.52180653	     94.96043215	      1.65737220	     28.22909374	    -10.31467889	     -7.46991650	    -29.61461508	     -2.79576833	     -0.06939727	     28.71955031	    -14.82502112	     -2.83177493	    121.87371264	    104.06447041	     53.14316900	    -23.58734092	     14.81767227	    122.58325410	    113.43074540
      1.46000000	    -17.16231707	     -2.58769517	     -0.24312384	     -0.26504897	      0.69041887	     -0.59260604	     76.06210828	     -3.87825251	      0.28124897	     94.58233099	      1.65077309	     30.87096698	     -5.49625534	     -7.47008779	     76.80396114	     -4.31488962	      8.46210058	     95.15238478	      1.66072241	     28.53697350	    -10.42297944	     -7.47008779	    -29.60558130	     -2.79787653	     -0.44891752	     30.09442934	    -14.05684150	     -2.75871181	    121.58054385	    104.03536532	     54.48502831	    -22.80032622	     15.41521958	    122.42074925	    113.49235457
      1.47000000	    -17.92148027	     -2.49895817	     -0.16201588	     -0.26310032	      0.68863690	     -0.59313761	     76.39319036	     -4.23060948	      0.23293992	     94.38742276	      1.64737130	     32.64377080	     -4.92850528	     -7.47044151	     77.49659237	     -4.11175663	      8.35856638	     95.27644528	      1.66288767	     28.92796925	    -10.49489187	     -7.47044151	    -29.48288287	     -2.90470335	     -0.71793567	     31.06814919	    -13.23363463	     -3.18122484	    121.15337186	    103.96763469	     55.80991589	    -22.47302769	     16.65005993	    122.09571623	    113.61234871
      1.48000000	    -18.47835496	     -2.49723388	     -0.18454702	     -0.26113569	      0.68795443	     -0.59338598	     76.48582766	     -4.34981326	      0.14661512	     94.10342109	      1.64241454	     33.94580623	     -4.15439761	     -7.47080427	     77.90823041	     -4.02027469	      8.40055598	     95.31506208	      1.66356166	     29.05633248	    -10.53165157	     -7.47080427	    -29.66390197	     -2.91849964	     -0.74134261	     31.94671907	    -12.64380341	     -3.68789372	    121.14832783	    103.94164759	     57.04256327	    -22.00420966	     17.24752024	    121.84875004	    113.65888066
      1.49000000	    -18.85470325	     -2.41594994	     -0.25366681	     -0.25916290	      0.68819005	     -0.59348334	     76.45700681	     -4.45131627	      0.10171764	     93.85095651	      1.63800820	     35.09358122	     -3.31193544	     -7.47134151	     78.06196543	     -3.93447376	      8.41135570	     95.24371953	      1.66231650	     28.98403598	    -10.61995285	     -7.47134151	    -29.95946397	     -3.02317549	     -0.73142339	     32.79195704	    -12.27874692	     -4.11244171	    121.16780947	    103.95637573	     58.16868279	    -21.62637998	     17.63272358	    121.43188197	    113.65499978
      1.50000000	    -19.25862901	     -2.34422742	     -0.40101334	     -0.25733561	      0.68879279	     -0.59351438	     76.57121725	     -4.44878239	      0.03855571	     93.61655650	      1.63391715	     35.27710735	     -3.21015853	     -7.47147768	     78.26460925	     -3.94378711	      8.39164685	     95.17667154	      1.66114629	     28.92441858	    -10.63875873	     -7.47147768	    -30.16539575	     -3.04637132	     -0.79267881	     33.64755611	    -12.07528239	     -4.16071095	    121.18888993	    103.96732076	     58.97347574	    -21.46940320	     17.52154070	    121.12779819	    113.60934877
      1.51000000	    -19.40948685	     -2.30027191	     -0.55761506	     -0.25554397	      0.69019378	     -0.59363206	     76.43899718	     -4.43791294	     -0.05503186	     93.37903919	      1.62977169	     35.46023584	     -3.05422084	     -7.47171453	     78.16066099	     -3.97627478	      8.37510692	     95.05949824	      1.65910123	     28.70917945	    -10.68874916	     -7.47171453	    -30.52716733	     -3.06792083	     -0.84035057	     34.49792458	    -12.09663381	     -4.14984247	    121.03225190	    103.97430955	     59.82481168	    -21.41006597	     17.54519815	    120.50287862	    113.53615048
      1.52000000	    -19.54618233	     -2.28543635	     -0.69255733	     -0.25377286	      0.69201954	     -0.59384440	     76.29225409	     -4.43417590	     -0.14456531	     93.09881141	      1.62488079	     35.41415108	     -2.85677221	     -7.47193761	     77.97177923	     -3.96397489	      8.39692994	     94.84192412	      1.65530384	     28.55268353	    -10.81937088	     -7.47193761	    -30.80369773	     -3.05591925	     -0.86370456	     35.21711794	    -12.32844336	     -4.10552420	    120.93462490	    103.98246198	     60.53149730	    -21.36685226	     17.58081577	    119.83853736	    113.46563119
      1.53000000	    -19.63194525	     -2.28456659	     -0.82746017	     -0.25192759	      0.69438460	     -0.59404984	     76.03910558	     -4.41913276	     -0.20190238	     92.74259675	      1.61866367	     35.24461434	     -2.63079428	     -7.47219431	     77.64167837	     -3.96727784	      8.40222682	     94.50969335	      1.64950532	     28.41197443	    -11.05073540	     -7.47219431	    -30.98363379	     -3.04876352	     -0.86262410	     35.78368546	    -12.64873046	     -4.08470087	    120.82634842	    103.99928235	     61.07435307	    -21.32201756	     17.63756524	    119.07071832	    113.40048677
